<svg xmlns="http://www.w3.org/2000/svg" xmlns:xlink="http://www.w3.org/1999/xlink" width="500" zoomAndPan="magnify" viewBox="0 0 375 374.999991" height="500" preserveAspectRatio="xMidYMid meet" version="1.0"><defs><clipPath id="439fa34397"><path d="M 4 3 L 372.84375 3 L 372.84375 372 L 4 372 Z M 4 3 " clip-rule="nonzero"/></clipPath></defs><g clip-path="url(#439fa34397)"><path fill="#000000" d="M 362.371094 187.335938 C 362.273438 223.394531 351.070312 258.621094 330.175781 288.035156 C 310.109375 316.273438 281.253906 338.34375 248.703125 350.222656 C 214.335938 362.75 176.382812 364.199219 141.1875 354.195312 C 107.453125 344.605469 77.253906 324.65625 54.875 297.707031 C 32.257812 270.464844 18.378906 236.09375 15.75 200.796875 C 13.0625 164.769531 21.527344 128.511719 40.257812 97.582031 C 58.332031 67.734375 85.328125 43.835938 117.046875 29.308594 C 149.984375 14.226562 187.867188 10.050781 223.347656 17.28125 C 258.007812 24.34375 289.929688 42.003906 314.371094 67.566406 C 338.78125 93.089844 354.871094 125.792969 360.363281 160.65625 C 361.757812 169.472656 362.351562 178.410156 362.371094 187.328125 C 362.390625 193.953125 372.695312 193.96875 372.675781 187.328125 C 372.570312 149.445312 360.867188 111.9375 338.808594 81.0625 C 317.179688 50.792969 286.8125 27.511719 251.867188 14.664062 C 215.777344 1.394531 175.414062 0.0195312 138.445312 10.53125 C 102.84375 20.652344 70.515625 41.769531 47.011719 70.367188 C 23.070312 99.496094 8.515625 135.335938 5.515625 172.917969 C 2.480469 210.933594 11.59375 249.65625 31.355469 282.285156 C 51.117188 314.917969 79.070312 339.441406 112.671875 354.628906 C 147.953125 370.570312 187.65625 375.042969 225.621094 367.40625 C 262.070312 360.074219 295.972656 341.234375 321.652344 314.382812 C 347.421875 287.4375 364.824219 252.703125 370.441406 215.8125 C 371.878906 206.378906 372.648438 196.878906 372.675781 187.328125 C 372.695312 180.703125 362.390625 180.6875 362.371094 187.328125 Z M 362.371094 187.335938 " fill-opacity="1" fill-rule="nonzero"/></g><path fill="#000000" d="M 281.617188 123.320312 L 281.617188 247.382812 C 281.617188 248.433594 281.609375 249.476562 281.617188 250.527344 C 281.625 251.671875 281.164062 251.960938 281.664062 250.710938 L 284.035156 247.636719 L 283.699219 247.78125 L 286.300781 247.078125 L 91.324219 247.078125 L 93.925781 247.78125 L 93.589844 247.636719 L 95.960938 250.710938 C 96.34375 251.679688 95.996094 251.941406 96.007812 250.808594 C 96.015625 249.96875 96.007812 249.125 96.007812 248.28125 L 96.007812 123.394531 L 95.308594 125.996094 L 95.5625 125.558594 L 91.109375 128.105469 L 91.597656 128.132812 L 88.996094 127.433594 C 101.296875 136.207031 113.605469 144.980469 125.910156 153.753906 C 140.617188 164.238281 155.316406 174.722656 170.023438 185.207031 C 175.097656 188.824219 180.015625 192.972656 185.367188 196.144531 C 189.886719 198.828125 194.125 194.34375 197.589844 191.886719 C 200.605469 189.746094 203.621094 187.609375 206.640625 185.46875 C 219.527344 176.324219 232.414062 167.183594 245.300781 158.039062 C 259.335938 148.085938 273.492188 138.273438 287.414062 128.167969 C 287.558594 128.0625 287.703125 127.960938 287.847656 127.859375 C 287.867188 127.84375 287.890625 127.832031 287.910156 127.816406 C 287.921875 127.804688 288.941406 127.019531 288.953125 127.007812 C 288.824219 127.125 287.691406 127.949219 288.664062 127.34375 L 286.0625 128.042969 L 286.535156 128.042969 C 285.050781 127.191406 283.570312 126.339844 282.085938 125.488281 L 282.324219 125.921875 C 285.546875 131.71875 294.449219 126.527344 291.222656 120.726562 L 290.980469 120.292969 C 290.109375 118.726562 288.316406 117.726562 286.527344 117.746094 C 284.222656 117.765625 283.519531 119.113281 281.660156 119.722656 C 281.6875 119.714844 283.226562 118.617188 282.449219 119.097656 C 281.863281 119.453125 281.324219 119.894531 280.765625 120.292969 C 278.363281 122.003906 275.949219 123.703125 273.546875 125.414062 C 265.179688 131.347656 256.8125 137.285156 248.453125 143.214844 C 233.257812 153.996094 218.070312 164.769531 202.878906 175.546875 C 197.292969 179.507812 191.714844 183.46875 186.128906 187.429688 L 188.734375 186.730469 L 188.199219 186.730469 C 189.0625 186.964844 189.929688 187.199219 190.800781 187.429688 C 180.503906 180.09375 170.207031 172.753906 159.917969 165.414062 C 142.25 152.820312 124.589844 140.222656 106.921875 127.632812 C 103.730469 125.351562 100.527344 123.074219 97.332031 120.792969 C 95.246094 119.304688 93.816406 117.980469 91.097656 117.820312 C 89.324219 117.71875 87.511719 118.871094 86.644531 120.367188 C 84.707031 123.726562 85.691406 129.300781 85.691406 132.972656 L 85.691406 245.328125 C 85.691406 250.003906 84.632812 256.933594 91.34375 257.378906 C 100.472656 257.988281 109.855469 257.378906 119 257.378906 C 160.6875 257.378906 202.375 257.378906 244.058594 257.378906 L 283.519531 257.378906 C 287.722656 257.378906 291.707031 256.472656 291.914062 251.15625 C 292.101562 246.34375 291.914062 241.484375 291.914062 236.671875 L 291.914062 123.332031 C 291.914062 116.707031 281.609375 116.695312 281.609375 123.332031 Z M 281.617188 123.320312 " fill-opacity="1" fill-rule="nonzero"/><path fill="#000000" d="M 169.636719 178.355469 C 145.824219 198.636719 122.015625 218.925781 98.199219 239.203125 C 94.792969 242.109375 91.386719 245.011719 87.972656 247.917969 L 91.613281 246.40625 L 91.109375 246.46875 L 95.5625 249.015625 L 95.292969 248.570312 L 95.996094 251.171875 L 95.996094 123.390625 L 95.292969 125.992188 L 95.546875 125.550781 L 91.097656 128.097656 L 91.585938 128.125 L 88.980469 127.425781 C 112.816406 144.417969 136.652344 161.417969 160.488281 178.410156 L 167.832031 183.648438 C 168.511719 184.136719 169.183594 184.644531 169.886719 185.109375 C 171.339844 186.09375 169.832031 185.75 169.007812 184.199219 L 169.007812 179 L 168.835938 179.40625 C 167.726562 181.980469 168.09375 184.898438 170.683594 186.449219 C 172.839844 187.742188 176.628906 187.15625 177.730469 184.601562 C 180.402344 178.382812 173.9375 175.402344 169.699219 172.375 C 163.222656 167.761719 156.75 163.140625 150.273438 158.527344 C 134.902344 147.570312 119.527344 136.605469 104.15625 125.648438 L 96.679688 120.320312 C 94.777344 118.960938 93.636719 117.964844 91.105469 117.8125 C 89.332031 117.710938 87.519531 118.863281 86.652344 120.359375 C 85.527344 122.316406 85.699219 124.144531 85.699219 126.273438 L 85.699219 247.476562 C 85.699219 249.796875 85.414062 252.148438 86.671875 254.226562 C 87.523438 255.632812 89.367188 257 91.125 256.773438 C 95.511719 256.21875 99.214844 251.835938 102.472656 249.070312 L 121.535156 232.832031 C 136.46875 220.113281 151.40625 207.390625 166.339844 194.667969 C 169.871094 191.660156 173.402344 188.652344 176.925781 185.644531 C 181.980469 181.339844 174.660156 174.085938 169.636719 178.363281 Z M 169.636719 178.355469 " fill-opacity="1" fill-rule="nonzero"/><path fill="#000000" d="M 281.617188 123.320312 L 281.617188 251.164062 L 282.320312 248.5625 L 282.042969 249.007812 L 286.496094 246.460938 L 285.992188 246.394531 L 289.632812 247.902344 C 265.867188 227.464844 242.101562 207.027344 218.332031 186.585938 C 215.851562 184.457031 213.378906 182.324219 210.902344 180.195312 C 210.21875 179.605469 209.546875 179 208.847656 178.429688 C 208.042969 177.769531 208.34375 177.476562 208.757812 178.445312 L 208.757812 183.640625 C 207.914062 185.214844 206.429688 185.515625 207.71875 184.671875 C 208.304688 184.285156 208.867188 183.855469 209.445312 183.449219 L 215.378906 179.242188 C 221.960938 174.570312 228.546875 169.902344 235.128906 165.226562 C 249.664062 154.914062 264.199219 144.605469 278.734375 134.292969 C 281.046875 132.652344 283.363281 131.007812 285.675781 129.367188 C 286.269531 128.949219 286.867188 128.539062 287.449219 128.113281 C 287.582031 128.015625 287.710938 127.933594 287.839844 127.835938 C 290.636719 125.769531 287.53125 128.023438 288.660156 127.328125 L 286.054688 128.03125 L 286.527344 128.03125 C 285.046875 127.179688 283.5625 126.328125 282.078125 125.476562 L 282.320312 125.910156 C 285.539062 131.703125 294.441406 126.511719 291.214844 120.710938 L 290.972656 120.277344 C 290.101562 118.714844 288.308594 117.710938 286.523438 117.730469 C 285.648438 117.738281 281.996094 118.34375 281.652344 119.707031 C 282.007812 118.261719 283.09375 118.726562 282.566406 118.996094 C 282.113281 119.226562 281.699219 119.613281 281.28125 119.90625 L 275.46875 124.035156 C 268.539062 128.949219 261.613281 133.867188 254.683594 138.78125 C 239.386719 149.628906 224.097656 160.484375 208.796875 171.332031 C 204.992188 174.03125 196.9375 177.914062 199.855469 183.648438 C 201.46875 186.820312 205.722656 189.296875 208.339844 191.550781 C 222.605469 203.820312 236.871094 216.089844 251.132812 228.351562 C 258.597656 234.769531 266.066406 241.1875 273.527344 247.609375 C 277.117188 250.699219 281.582031 256.121094 286.488281 256.761719 C 288.238281 256.988281 290.085938 255.613281 290.9375 254.214844 C 292.085938 252.324219 291.914062 250.476562 291.914062 248.398438 L 291.914062 123.3125 C 291.914062 116.6875 281.609375 116.675781 281.609375 123.3125 Z M 281.617188 123.320312 " fill-opacity="1" fill-rule="nonzero"/><path fill="#000000" d="M 282.347656 126.898438 L 282.8125 127.226562 L 280.441406 121.410156 C 280.585938 120.648438 283.871094 118.128906 282.035156 119.386719 C 281.296875 119.894531 280.574219 120.421875 279.839844 120.945312 L 272.015625 126.492188 C 263.605469 132.457031 255.191406 138.425781 246.785156 144.390625 C 232.097656 154.8125 217.40625 165.234375 202.71875 175.65625 C 197.195312 179.578125 191.675781 183.492188 186.15625 187.410156 L 188.761719 186.710938 L 188.183594 186.710938 C 189.050781 186.945312 189.914062 187.175781 190.789062 187.410156 C 180.757812 180.261719 170.730469 173.109375 160.703125 165.960938 C 143.308594 153.5625 125.917969 141.164062 108.53125 128.765625 C 105.226562 126.410156 101.921875 124.054688 98.617188 121.691406 C 97.699219 121.039062 96.792969 120.367188 95.855469 119.730469 C 94.25 118.625 95.410156 118.652344 96.453125 120.457031 L 96.976562 124.425781 L 97.09375 124.019531 L 94.722656 127.097656 L 95.113281 126.910156 L 92.511719 127.609375 L 284.949219 127.609375 C 291.578125 127.609375 291.589844 117.3125 284.949219 117.3125 L 204.101562 117.3125 C 168.945312 117.3125 133.796875 117.3125 98.640625 117.3125 C 95.996094 117.3125 92.355469 116.757812 89.914062 118.011719 C 85.113281 120.492188 86.804688 125.832031 90.335938 128.386719 C 92.050781 129.628906 93.789062 130.851562 95.511719 132.082031 C 110.914062 143.066406 126.320312 154.042969 141.722656 165.027344 C 151.683594 172.128906 161.640625 179.234375 171.601562 186.332031 C 175.332031 188.988281 179.0625 191.652344 182.792969 194.3125 C 185.964844 196.570312 188.898438 198.046875 192.546875 195.464844 C 197.503906 191.941406 202.472656 188.421875 207.433594 184.90625 C 233.789062 166.210938 260.136719 147.515625 286.496094 128.8125 C 288.261719 127.5625 289.929688 126.535156 290.382812 124.152344 C 290.835938 121.769531 290.027344 119.738281 288.011719 118.335938 L 287.546875 118.007812 C 282.097656 114.203125 276.941406 123.128906 282.347656 126.898438 Z M 282.347656 126.898438 " fill-opacity="1" fill-rule="nonzero"/></svg>