<svg xmlns="http://www.w3.org/2000/svg" xmlns:xlink="http://www.w3.org/1999/xlink" width="500" zoomAndPan="magnify" viewBox="0 0 375 374.999991" height="500" preserveAspectRatio="xMidYMid meet" version="1.0"><defs><clipPath id="6008cf7540"><path d="M 4 5 L 372 5 L 372 372.160156 L 4 372.160156 Z M 4 5 " clip-rule="nonzero"/></clipPath></defs><g clip-path="url(#6008cf7540)"><path fill="#0f0e0c" d="M 80.8125 18.152344 C 69.6875 18.152344 53.304688 19.523438 46.050781 25.554688 C 28.285156 40.363281 18.714844 60.269531 17.601562 84.722656 C 14.644531 149.648438 70.3125 229.992188 108.460938 268.148438 C 146.589844 306.335938 226.75 361.972656 291.757812 359.070312 C 316.195312 357.957031 336.089844 348.382812 350.882812 330.601562 C 357.753906 322.34375 358.566406 302.234375 358.195312 291.542969 C 316.480469 273.78125 270.652344 255.042969 262.425781 253.015625 C 257.667969 255.117188 242.675781 268.351562 230.847656 280.15625 C 226.964844 285 216.582031 290.902344 202.128906 281.839844 C 177.894531 274.480469 102.847656 196.378906 94.890625 174.597656 C 85.679688 160.050781 91.605469 149.589844 96.464844 145.6875 C 108.359375 133.753906 121.710938 118.578125 123.640625 113.960938 C 122.097656 107.160156 103.089844 60.582031 85.082031 18.222656 C 83.78125 18.183594 82.351562 18.152344 80.8125 18.152344 Z M 286.816406 372.0625 C 223.152344 372.0625 145.632812 323.585938 99.363281 277.269531 C 51.71875 229.59375 1.800781 148.832031 4.75 84.136719 C 6.039062 55.910156 17.160156 32.875 37.839844 15.667969 C 52.90625 3.109375 86.195312 5.296875 89.921875 5.59375 C 92.320312 5.777344 94.40625 7.285156 95.347656 9.484375 C 114.15625 53.609375 136.566406 107.601562 136.566406 114.289062 C 136.566406 116.632812 136.566406 123.75 105.273438 155.078125 C 105.03125 155.304688 104.773438 155.535156 104.503906 155.734375 C 103.917969 156.234375 100.492188 159.765625 106.089844 168.226562 C 106.460938 168.78125 106.746094 169.382812 106.917969 170.011719 C 112.074219 188.074219 189.90625 266.21875 206.070312 269.578125 C 206.871094 269.734375 207.640625 270.066406 208.3125 270.507812 C 216.753906 276.125 220.308594 272.695312 220.925781 271.953125 C 221.039062 271.808594 221.324219 271.480469 221.464844 271.335938 C 252.757812 240.023438 259.867188 240.023438 262.195312 240.023438 C 268.894531 240.023438 322.847656 262.460938 366.933594 281.269531 C 369.148438 282.210938 370.632812 284.300781 370.835938 286.6875 C 371.121094 290.445312 373.320312 323.742188 360.765625 338.835938 C 343.570312 359.515625 320.550781 370.648438 292.34375 371.933594 C 290.515625 372.019531 288.675781 372.0625 286.816406 372.0625 " fill-opacity="1" fill-rule="nonzero"/></g><path fill="#0f0e0c" d="M 261.667969 195.9375 C 258.113281 195.9375 255.242188 193.050781 255.242188 189.492188 C 255.242188 152.320312 225.023438 122.078125 187.878906 122.078125 C 184.320312 122.078125 181.4375 119.191406 181.4375 115.648438 C 181.4375 112.089844 184.320312 109.203125 187.878906 109.203125 C 232.105469 109.203125 268.09375 145.214844 268.09375 189.492188 C 268.09375 193.050781 265.222656 195.9375 261.667969 195.9375 " fill-opacity="1" fill-rule="nonzero"/><path fill="#0f0e0c" d="M 299.542969 195.9375 C 295.984375 195.9375 293.117188 193.050781 293.117188 189.492188 C 293.117188 131.425781 245.902344 84.179688 187.878906 84.179688 C 184.320312 84.179688 181.4375 81.292969 181.4375 77.746094 C 181.4375 74.1875 184.320312 71.300781 187.878906 71.300781 C 253 71.300781 305.96875 124.324219 305.96875 189.492188 C 305.96875 193.050781 303.097656 195.9375 299.542969 195.9375 " fill-opacity="1" fill-rule="nonzero"/><path fill="#0f0e0c" d="M 333.917969 195.9375 C 330.359375 195.9375 327.476562 193.050781 327.476562 189.492188 C 327.476562 112.460938 264.851562 49.78125 187.878906 49.78125 C 184.320312 49.78125 181.4375 46.894531 181.4375 43.347656 C 181.4375 39.789062 184.320312 36.917969 187.878906 36.917969 C 271.949219 36.917969 340.34375 105.359375 340.34375 189.492188 C 340.34375 193.050781 337.472656 195.9375 333.917969 195.9375 " fill-opacity="1" fill-rule="nonzero"/></svg>